{
    "asset" : {
        "generator" : "Khronos glTF Blender I/O v1.6.16",
        "version" : "2.0"
    },
    "scene" : 0,
    "scenes" : [
        {
            "name" : "Scene",
            "nodes" : [
                0
            ]
        }
    ],
    "nodes" : [
        {
            "mesh" : 0,
            "name" : "Oak",
            "rotation" : [
                0.7071068286895752,
                0,
                0,
                0.7071068286895752
            ],
            "scale" : [
                0.009999999776482582,
                0.009999999776482582,
                0.009999999776482582
            ]
        }
    ],
    "meshes" : [
        {
            "name" : "Cylinder.004",
            "primitives" : [
                {
                    "attributes" : {
                        "POSITION" : 0,
                        "NORMAL" : 1,
                        "TEXCOORD_0" : 2
                    },
                    "indices" : 3
                }
            ]
        }
    ],
    "accessors" : [
        {
            "bufferView" : 0,
            "componentType" : 5126,
            "count" : 4944,
            "max" : [
                193.64501953125,
                151.45062255859375,
                0.9936501979827881
            ],
            "min" : [
                -201.98558044433594,
                -132.23963928222656,
                -530.4503173828125
            ],
            "type" : "VEC3"
        },
        {
            "bufferView" : 1,
            "componentType" : 5126,
            "count" : 4944,
            "type" : "VEC3"
        },
        {
            "bufferView" : 2,
            "componentType" : 5126,
            "count" : 4944,
            "type" : "VEC2"
        },
        {
            "bufferView" : 3,
            "componentType" : 5123,
            "count" : 5910,
            "type" : "SCALAR"
        }
    ],
    "bufferViews" : [
        {
            "buffer" : 0,
            "byteLength" : 59328,
            "byteOffset" : 0
        },
        {
            "buffer" : 0,
            "byteLength" : 59328,
            "byteOffset" : 59328
        },
        {
            "buffer" : 0,
            "byteLength" : 39552,
            "byteOffset" : 118656
        },
        {
            "buffer" : 0,
            "byteLength" : 11820,
            "byteOffset" : 158208
        }
    ],
    "buffers" : [
        {
            "byteLength" : 170028,
            "uri" : "data:application/octet-stream;base64,"
        }
    ]
}
