{
    "asset" : {
        "generator" : "Khronos glTF Blender I/O v1.6.16",
        "version" : "2.0"
    },
    "scene" : 0,
    "scenes" : [
        {
            "name" : "Scene",
            "nodes" : [
                0
            ]
        }
    ],
    "nodes" : [
        {
            "mesh" : 0,
            "name" : "Icosphere.001",
            "rotation" : [
                0.029056493192911148,
                -0.017002955079078674,
                0.09623882919549942,
                0.9947887659072876
            ],
            "translation" : [
                -3.3221933841705322,
                10.894515037536621,
                3.7547876834869385
            ]
        }
    ],
    "materials" : [
        {
            "doubleSided" : true,
            "name" : "Leaves",
            "pbrMetallicRoughness" : {
                "baseColorFactor" : [
                    0.008023509755730629,
                    0.084937185049057,
                    0.008452962152659893,
                    1
                ],
                "metallicFactor" : 0
            }
        },
        {
            "doubleSided" : true,
            "name" : "Material.001",
            "pbrMetallicRoughness" : {
                "baseColorFactor" : [
                    0.06243491172790527,
                    0.026707705110311508,
                    0.00703418580815196,
                    1
                ],
                "metallicFactor" : 0,
                "roughnessFactor" : 0.5
            }
        }
    ],
    "meshes" : [
        {
            "name" : "Icosphere.001",
            "primitives" : [
                {
                    "attributes" : {
                        "POSITION" : 0,
                        "NORMAL" : 1,
                        "TEXCOORD_0" : 2
                    },
                    "indices" : 3,
                    "material" : 0
                },
                {
                    "attributes" : {
                        "POSITION" : 4,
                        "NORMAL" : 5,
                        "TEXCOORD_0" : 6
                    },
                    "indices" : 7,
                    "material" : 1
                }
            ]
        }
    ],
    "accessors" : [
        {
            "bufferView" : 0,
            "componentType" : 5126,
            "count" : 2400,
            "max" : [
                12.69934368133545,
                6.1724629402160645,
                4.657564163208008
            ],
            "min" : [
                -3.9999706745147705,
                -5.502355098724365,
                -11.922221183776855
            ],
            "type" : "VEC3"
        },
        {
            "bufferView" : 1,
            "componentType" : 5126,
            "count" : 2400,
            "type" : "VEC3"
        },
        {
            "bufferView" : 2,
            "componentType" : 5126,
            "count" : 2400,
            "type" : "VEC2"
        },
        {
            "bufferView" : 3,
            "componentType" : 5123,
            "count" : 2400,
            "type" : "SCALAR"
        },
        {
            "bufferView" : 4,
            "componentType" : 5126,
            "count" : 6928,
            "max" : [
                9.499370574951172,
                4.154582977294922,
                1.8826007843017578
            ],
            "min" : [
                -0.983500599861145,
                -11.706987380981445,
                -8.290454864501953
            ],
            "type" : "VEC3"
        },
        {
            "bufferView" : 5,
            "componentType" : 5126,
            "count" : 6928,
            "type" : "VEC3"
        },
        {
            "bufferView" : 6,
            "componentType" : 5126,
            "count" : 6928,
            "type" : "VEC2"
        },
        {
            "bufferView" : 7,
            "componentType" : 5123,
            "count" : 10440,
            "type" : "SCALAR"
        }
    ],
    "bufferViews" : [
        {
            "buffer" : 0,
            "byteLength" : 28800,
            "byteOffset" : 0
        },
        {
            "buffer" : 0,
            "byteLength" : 28800,
            "byteOffset" : 28800
        },
        {
            "buffer" : 0,
            "byteLength" : 19200,
            "byteOffset" : 57600
        },
        {
            "buffer" : 0,
            "byteLength" : 4800,
            "byteOffset" : 76800
        },
        {
            "buffer" : 0,
            "byteLength" : 83136,
            "byteOffset" : 81600
        },
        {
            "buffer" : 0,
            "byteLength" : 83136,
            "byteOffset" : 164736
        },
        {
            "buffer" : 0,
            "byteLength" : 55424,
            "byteOffset" : 247872
        },
        {
            "buffer" : 0,
            "byteLength" : 20880,
            "byteOffset" : 303296
        }
    ],
    "buffers" : [
        {
            "byteLength" : 324176,
            "uri" : "data:application/octet-stream;base64,"
        }
    ]
}
